<svg width="75" height="75" viewBox="0 0 75 75" fill="none" xmlns="http://www.w3.org/2000/svg">
<path d="M37.25 1.87651C37.4047 1.78719 37.5953 1.78719 37.75 1.87651L68.226 19.4718C68.3807 19.5611 68.476 19.7262 68.476 19.9048V55.0954C68.476 55.2741 68.3807 55.4391 68.226 55.5284L37.75 73.1237L38.5 74.4228L37.75 73.1237C37.5953 73.2131 37.4047 73.2131 37.25 73.1237L6.77405 55.5284C6.61935 55.4391 6.52405 55.2741 6.52405 55.0954V19.9048C6.52405 19.7262 6.61935 19.5611 6.77405 19.4718L37.25 1.87651Z" stroke="url(#paint0_linear_1_4729)" stroke-width="3"/>
<g clip-path="url(#clip0_1_4729)">
<path d="M18.261 49.5055C18.261 52.2923 20.52 54.551 23.3065 54.551H52.3457C55.1327 54.551 57.3914 52.292 57.3914 49.5055V20.4663C57.3914 17.6793 55.1324 15.4206 52.3459 15.4206H23.3066C20.5197 15.4206 18.261 17.6796 18.261 20.4661V49.5053V49.5055Z" fill="#563D7C"/>
<path d="M34.4876 32.7294V27.188H39.3653C39.8299 27.188 40.2778 27.2267 40.7091 27.3042C41.1405 27.3815 41.5222 27.5197 41.854 27.7189C42.1857 27.9181 42.4512 28.1946 42.6504 28.5484C42.8494 28.9024 42.9491 29.3559 42.9491 29.9088C42.9491 30.9044 42.6504 31.6234 42.053 32.0657C41.4558 32.5082 40.6926 32.7294 39.7634 32.7294H34.4876ZM29.2779 23.1397V46.832H40.759C41.8209 46.832 42.8551 46.6993 43.8616 46.4338C44.8681 46.1683 45.764 45.7591 46.5494 45.2061C47.3346 44.653 47.9596 43.9395 48.4241 43.0658C48.8888 42.192 49.121 41.1577 49.121 39.9632C49.121 38.481 48.7615 37.2146 48.0426 36.1639C47.3236 35.113 46.234 34.3775 44.774 33.9571C45.8358 33.4484 46.6379 32.7958 47.1799 31.9994C47.7218 31.203 47.9928 30.2076 47.9928 29.0129C47.9928 27.9069 47.8103 26.9779 47.4452 26.2257C47.0802 25.4736 46.5659 24.8708 45.9022 24.4173C45.2387 23.9637 44.4423 23.6374 43.5131 23.4384C42.584 23.2392 41.5553 23.1397 40.4271 23.1397H29.2779ZM34.4876 42.7836V36.2799H40.1616C41.2898 36.2799 42.1969 36.5397 42.8827 37.0598C43.5684 37.5796 43.9114 38.4478 43.9114 39.6645C43.9114 40.284 43.8063 40.7927 43.5961 41.1909C43.3859 41.5891 43.1039 41.9044 42.7499 42.1366C42.396 42.369 41.9867 42.5348 41.5222 42.6345C41.0575 42.7338 40.571 42.7836 40.0621 42.7836H34.4876Z" fill="white"/>
</g>
<defs>
<linearGradient id="paint0_linear_1_4729" x1="69.6429" y1="75.0001" x2="-9.86444" y2="24.6316" gradientUnits="userSpaceOnUse">
<stop stop-color="#0D54BE"/>
<stop offset="1" stop-color="#20ECD3"/>
</linearGradient>
<clipPath id="clip0_1_4729">
<rect width="39.1304" height="39.1304" fill="white" transform="translate(18.261 15.4206)"/>
</clipPath>
</defs>
</svg>
