<svg width="75" height="75" viewBox="0 0 75 75" fill="none" xmlns="http://www.w3.org/2000/svg">
<path d="M50.3687 54.5357L37.1737 58.0886L23.9785 54.5357L20.9337 21.5482H53.414L50.3687 54.5357Z" fill="#2062AF"/>
<path d="M37.1736 24.2202V55.2549L37.2034 55.263L47.8816 52.3876L50.3463 24.2202H37.1736Z" fill="#3C9CD7"/>
<path d="M29.685 16.7017V14.7383H32.5496V12.5898H27.5366V18.6622H32.5496V16.7017H29.685ZM37.7027 14.7383H39.7055V12.5898H34.6919V14.7383C35.3627 15.409 35.7125 15.7301 36.6826 16.7001C36.1155 16.7001 34.6919 16.7022 34.6919 16.7021V18.6622H39.7055V16.7017L37.7027 14.7383ZM44.8085 14.7383H46.8112V12.5898H41.7974V14.7383C42.4682 15.409 42.8182 15.7301 43.7883 16.7001C43.2214 16.7001 41.7974 16.7022 41.7974 16.7021V18.6622H46.8113V16.7017L44.8085 14.7383Z" fill="black"/>
<path d="M37.1619 32.4683L27.7178 36.4016L28.031 40.2957L37.1619 36.3917L46.8748 32.239L47.2775 28.2554L37.1619 32.4683Z" fill="white"/>
<path d="M27.7177 36.4016L28.0309 40.2958L37.1618 36.3917V32.4684L27.7177 36.4016Z" fill="url(#paint0_linear_1_4708)"/>
<path d="M47.2775 28.2555L37.1619 32.4684V36.3917L46.8748 32.239L47.2775 28.2555Z" fill="url(#paint1_linear_1_4708)"/>
<path d="M27.7322 36.4016L28.0455 40.2958L42.0557 40.3404L41.7423 45.5326L37.1322 46.8305L32.7004 45.7115L32.4319 42.4888H28.3141L28.8512 48.7104L37.1769 51.1721L45.4575 48.7551L46.5318 36.4016H27.7322Z" fill="url(#paint2_linear_1_4708)"/>
<path opacity="0.05" d="M37.1619 36.4016H27.7178L28.031 40.2958L37.1619 40.3249V36.4016ZM37.1619 46.8181L37.1172 46.8306L32.686 45.7116L32.4175 42.4889H28.2997L28.8368 48.7105L37.1619 51.1722V46.8181Z" fill="black"/>
<path d="M26.8673 28.2555H47.2776L46.8749 32.2391H27.3596L26.8673 28.2555Z" fill="url(#paint3_linear_1_4708)"/>
<path opacity="0.05" d="M37.1619 28.2555H26.8673L27.3596 32.2391H37.1619V28.2555Z" fill="black"/>
<path d="M37.25 1.87651C37.4047 1.78719 37.5953 1.78719 37.75 1.87651L68.226 19.4718C68.3807 19.5611 68.476 19.7262 68.476 19.9048V55.0954C68.476 55.2741 68.3807 55.4391 68.226 55.5284L37.75 73.1237L38.5 74.4228L37.75 73.1237C37.5953 73.2131 37.4047 73.2131 37.25 73.1237L6.77405 55.5284C6.61935 55.4391 6.52405 55.2741 6.52405 55.0954V19.9048C6.52405 19.7262 6.61935 19.5611 6.77405 19.4718L37.25 1.87651Z" stroke="url(#paint4_linear_1_4708)" stroke-width="3"/>
<defs>
<linearGradient id="paint0_linear_1_4708" x1="32.4398" y1="40.2959" x2="32.4398" y2="32.4685" gradientUnits="userSpaceOnUse">
<stop offset="0.387" stop-color="#D1D3D4" stop-opacity="0"/>
<stop offset="1" stop-color="#D1D3D4"/>
</linearGradient>
<linearGradient id="paint1_linear_1_4708" x1="42.2196" y1="36.3918" x2="42.2196" y2="28.2556" gradientUnits="userSpaceOnUse">
<stop offset="0.387" stop-color="#D1D3D4" stop-opacity="0"/>
<stop offset="1" stop-color="#D1D3D4"/>
</linearGradient>
<linearGradient id="paint2_linear_1_4708" x1="27.7322" y1="43.787" x2="46.5317" y2="43.787" gradientUnits="userSpaceOnUse">
<stop stop-color="#E8E7E5"/>
<stop offset="1" stop-color="white"/>
</linearGradient>
<linearGradient id="paint3_linear_1_4708" x1="26.8673" y1="30.2473" x2="47.2775" y2="30.2473" gradientUnits="userSpaceOnUse">
<stop stop-color="#E8E7E5"/>
<stop offset="1" stop-color="white"/>
</linearGradient>
<linearGradient id="paint4_linear_1_4708" x1="69.6429" y1="75.0001" x2="-9.86444" y2="24.6316" gradientUnits="userSpaceOnUse">
<stop stop-color="#0D54BE"/>
<stop offset="1" stop-color="#20ECD3"/>
</linearGradient>
</defs>
</svg>
