<svg width="75" height="75" viewBox="0 0 75 75" fill="none" xmlns="http://www.w3.org/2000/svg">
<path d="M36 2.02085C36.9282 1.48495 38.0718 1.48495 39 2.02085L67.476 18.4614C68.4042 18.9973 68.976 19.9877 68.976 21.0595V53.9407C68.976 55.0125 68.4042 56.0029 67.476 56.5388L39 72.9794C38.0718 73.5153 36.9282 73.5153 36 72.9794L7.52405 56.5388C6.59585 56.0029 6.02405 55.0125 6.02405 53.9407V21.0595C6.02405 19.9877 6.59584 18.9973 7.52405 18.4614L36 2.02085Z" stroke="url(#paint0_linear_1_4698)" stroke-width="2"/>
<g clip-path="url(#clip0_1_4698)">
<path d="M53.2872 24.5657L50.4741 56.0798L37.829 59.5854L25.2187 56.0847L22.4085 24.5657H53.2872Z" fill="#E44D26"/>
<path d="M37.8478 56.9058L48.0657 54.0731L50.4696 27.1428H37.8478V56.9058Z" fill="#F16529"/>
<path d="M32.3792 34.8742H37.8478V31.0085H28.1545L28.247 32.0456L29.1972 42.6984H37.8478V38.8327H32.7325L32.3792 34.8742ZM33.2505 44.6313H29.3699L29.9114 50.701L37.83 52.8991L37.8478 52.8943V48.8723L37.8309 48.8768L33.5257 47.7143L33.2505 44.6313Z" fill="#EBEBEB"/>
<path d="M25.2814 16.0001H27.2459V17.941H29.043V16.0001H31.0076V21.8776H29.0431V19.9095H27.246V21.8776H25.2815V16.0001H25.2814ZM33.5908 17.9492H31.8616V16.0001H37.2859V17.9492H35.5557V21.8776H33.5912V17.9492H33.5911H33.5908ZM38.1468 16.0001H40.1951L41.4552 18.0653L42.714 16.0001H44.7632V21.8776H42.8067V18.9644L41.4552 21.0542H41.4213L40.0689 18.9644V21.8776H38.1468V16.0001ZM45.7409 16.0001H47.706V19.9349H50.4686V21.8776H45.7407V16.0001H45.7409Z" fill="black"/>
<path d="M37.8345 42.6984H42.5946L42.1458 47.7119L37.8344 48.8756V52.8973L45.7592 50.701L45.8173 50.0479L46.7259 39.8708L46.8202 38.8327H37.8345V42.6984ZM37.8345 34.8648V34.8742H47.1719L47.2494 34.0054L47.4256 32.0456L47.518 31.0085H37.8345V34.8649V34.8648Z" fill="white"/>
</g>
<defs>
<linearGradient id="paint0_linear_1_4698" x1="69.6429" y1="75.0001" x2="-9.86444" y2="24.6316" gradientUnits="userSpaceOnUse">
<stop stop-color="#0D54BE"/>
<stop offset="1" stop-color="#20ECD3"/>
</linearGradient>
<clipPath id="clip0_1_4698">
<rect width="43.6957" height="43.6957" fill="white" transform="translate(16 16.0001)"/>
</clipPath>
</defs>
</svg>
