<svg width="75" height="75" viewBox="0 0 75 75" fill="none" xmlns="http://www.w3.org/2000/svg">
<path d="M36 2.02073C36.9282 1.48483 38.0718 1.48483 39 2.02073L67.476 18.4613C68.4042 18.9972 68.976 19.9876 68.976 21.0594V53.9406C68.976 55.0124 68.4042 56.0028 67.476 56.5387L39 72.9793C38.0718 73.5152 36.9282 73.5152 36 72.9793L7.52405 56.5387C6.59585 56.0028 6.02405 55.0124 6.02405 53.9406V21.0594C6.02405 19.9876 6.59584 18.9972 7.52405 18.4613L36 2.02073Z" stroke="url(#paint0_linear_1_4698)" stroke-width="2"/>
<g clip-path="url(#clip0_1_4698)">
<path d="M53.2871 24.5656L50.474 56.0797L37.8289 59.5853L25.2186 56.0845L22.4084 24.5656H53.2871Z" fill="#E44D26"/>
<path d="M37.8478 56.9057L48.0657 54.073L50.4695 27.1426H37.8478V56.9057Z" fill="#F16529"/>
<path d="M32.3792 34.8741H37.8478V31.0084H28.1545L28.247 32.0455L29.1972 42.6983H37.8478V38.8326H32.7325L32.3792 34.8741ZM33.2505 44.6312H29.3699L29.9114 50.7009L37.83 52.899L37.8478 52.8941V48.8722L37.8309 48.8767L33.5257 47.7142L33.2505 44.6312Z" fill="#EBEBEB"/>
<path d="M25.2814 16H27.2459V17.9409H29.043V16H31.0076V21.8775H29.0431V19.9094H27.246V21.8775H25.2815V16H25.2814ZM33.5908 17.9491H31.8616V16H37.2859V17.9491H35.5557V21.8775H33.5912V17.9491H33.5911H33.5908ZM38.1468 16H40.1951L41.4552 18.0652L42.714 16H44.7632V21.8775H42.8067V18.9643L41.4552 21.054H41.4213L40.0689 18.9643V21.8775H38.1468V16ZM45.7409 16H47.706V19.9348H50.4686V21.8775H45.7407V16H45.7409Z" fill="black"/>
<path d="M37.8345 42.6983H42.5946L42.1458 47.7118L37.8344 48.8755V52.8972L45.7592 50.7009L45.8173 50.0478L46.7259 39.8707L46.8202 38.8326H37.8345V42.6983ZM37.8345 34.8647V34.8741H47.1719L47.2494 34.0053L47.4256 32.0455L47.518 31.0084H37.8345V34.8648V34.8647Z" fill="white"/>
</g>
<defs>
<linearGradient id="paint0_linear_1_4698" x1="69.6429" y1="75" x2="-9.86444" y2="24.6315" gradientUnits="userSpaceOnUse">
<stop stop-color="#0D54BE"/>
<stop offset="1" stop-color="#20ECD3"/>
</linearGradient>
<clipPath id="clip0_1_4698">
<rect width="43.6957" height="43.6957" fill="white" transform="translate(16 16)"/>
</clipPath>
</defs>
</svg>
